<?xml version="1.0" encoding="UTF-8" standalone="no"?>
<!DOCTYPE svg PUBLIC "-//W3C//DTD SVG 1.1//EN"
 "http://www.w3.org/Graphics/SVG/1.1/DTD/svg11.dtd">
<!-- Generated by graphviz version 2.43.0 (0)
 -->
<!-- Title: G Pages: 1 -->
<svg width="1704pt" height="289pt"
 viewBox="0.00 0.00 681.68 115.68" xmlns="http://www.w3.org/2000/svg" xmlns:xlink="http://www.w3.org/1999/xlink">
<g id="graph0" class="graph" transform="scale(2.5 2.5) rotate(0) translate(15.84 99.84)">
<title>G</title>
<polygon fill="white" stroke="transparent" points="-15.84,15.84 -15.84,-99.84 665.84,-99.84 665.84,15.84 -15.84,15.84"/>
<!-- before -->
<g id="node1" class="node">
<title>before</title>
<path fill="#fbe8e6" stroke="#bacddd" d="M181,-84C181,-84 12,-84 12,-84 6,-84 0,-78 0,-72 0,-72 0,-12 0,-12 0,-6 6,0 12,0 12,0 181,0 181,0 187,0 193,-6 193,-12 193,-12 193,-72 193,-72 193,-78 187,-84 181,-84"/>
<text text-anchor="middle" x="96.5" y="-59" font-family="DejaVu Sans" font-size="20.00">BEFORE</text>
<text text-anchor="middle" x="96.5" y="-37" font-family="DejaVu Sans" font-size="20.00">16.27 seconds</text>
<text text-anchor="middle" x="96.5" y="-15" font-family="DejaVu Sans" font-size="20.00">7 / 10 completed</text>
</g>
<!-- after -->
<g id="node2" class="node">
<title>after</title>
<path fill="#ddf2ee" stroke="#bacddd" d="M638,-84C638,-84 457,-84 457,-84 451,-84 445,-78 445,-72 445,-72 445,-12 445,-12 445,-6 451,0 457,0 457,0 638,0 638,0 644,0 650,-6 650,-12 650,-12 650,-72 650,-72 650,-78 644,-84 638,-84"/>
<text text-anchor="middle" x="547.5" y="-59" font-family="DejaVu Sans" font-size="20.00">AFTER</text>
<text text-anchor="middle" x="547.5" y="-37" font-family="DejaVu Sans" font-size="20.00">11.64 seconds</text>
<text text-anchor="middle" x="547.5" y="-15" font-family="DejaVu Sans" font-size="20.00">10 / 10 completed</text>
</g>
<!-- before&#45;&gt;after -->
<g id="edge1" class="edge">
<title>before&#45;&gt;after</title>
<path fill="none" stroke="#5c748a" d="M193.27,-42C264.88,-42 362.88,-42 437.49,-42"/>
<polygon fill="#5c748a" stroke="#5c748a" points="437.63,-44.45 444.63,-42 437.63,-39.55 437.63,-44.45"/>
<text text-anchor="middle" x="319" y="-59.6" font-family="DejaVu Sans" font-size="13.00">28.5% lower recorded intake time</text>
<text text-anchor="middle" x="319" y="-45.6" font-family="DejaVu Sans" font-size="13.00">Analysis: 8.29s → 3.25s</text>
</g>
</g>
</svg>
